<?xml version="1.0" standalone="no"?>
<!DOCTYPE svg PUBLIC "-//W3C//DTD SVG 1.1//EN" "http://www.w3.org/Graphics/SVG/1.1/DTD/svg11.dtd" >
<svg xmlns="http://www.w3.org/2000/svg">
<metadata></metadata>
<defs>
<font id="qanelas_softregular" horiz-adv-x="1064" >
<font-face units-per-em="2048" ascent="1638" descent="-410" />
<missing-glyph horiz-adv-x="512" />
<glyph horiz-adv-x="0" />
<glyph horiz-adv-x="682" />
<glyph unicode=" "  horiz-adv-x="512" />
<glyph unicode="&#x09;" horiz-adv-x="512" />
<glyph unicode="&#xa0;" horiz-adv-x="512" />
<glyph unicode="!" horiz-adv-x="471" d="M143 41v102q0 41 41 41h103q41 0 41 -41v-102q0 -41 -41 -41h-103q-41 0 -41 41zM154 1024v369q0 41 41 41h81q41 0 41 -41v-369l-28 -606q0 -13 -8.5 -21t-22.5 -8h-45q-14 0 -22.5 8t-8.5 21z" />
<glyph unicode="&#x22;" horiz-adv-x="634" d="M104 1397q-3 37 35 37h70q38 0 35 -37l-17 -336q-3 -37 -39 -37h-28q-36 0 -39 37zM391 1397q-3 37 35 37h70q37 0 34 -37l-16 -336q-3 -37 -39 -37h-29q-35 0 -38 37z" />
<glyph unicode="#" horiz-adv-x="1226" d="M70 516l6 41q5 37 45 37h207l41 246h-203q-20 0 -30 12.5t-7 32.5l6 41q5 37 45 37h209l55 331q5 37 43 37h50q20 0 29.5 -12t6.5 -33l-53 -323h271l55 331q5 37 43 37h49q20 0 30 -12.5t7 -32.5l-54 -323h199q20 0 30 -12.5t7 -32.5l-6 -41q-5 -37 -45 -37h-205 l-41 -246h201q20 0 30 -12.5t7 -32.5l-6 -41q-5 -37 -45 -37h-208l-55 -332q-5 -37 -43 -37h-49q-20 0 -30 12.5t-7 32.5l54 324h-271l-55 -332q-5 -37 -43 -37h-49q-20 0 -30 12.5t-7 32.5l54 324h-202q-20 0 -29.5 12t-6.5 33zM458 594h271l41 246h-271z" />
<glyph unicode="$" horiz-adv-x="1126" d="M84 373q-3 43 39 43h63q38 0 41 -41q12 -106 85.5 -171t189.5 -83v558q-69 27 -116.5 49t-103.5 58.5t-89.5 77t-56.5 100t-23 130.5q0 105 55.5 186t142 123.5t191.5 52.5v141q0 41 41 41h41q41 0 41 -41v-143q156 -19 264.5 -114.5t122.5 -247.5q3 -43 -39 -43h-64 q-38 0 -41 38q-12 94 -78 152.5t-165 74.5v-540q53 -21 88.5 -36t83.5 -39t80 -47t66 -55.5t54.5 -67t33.5 -80t13 -97.5q0 -109 -58.5 -193t-152 -129t-208.5 -53v-141q0 -41 -41 -41h-41q-41 0 -41 41v144q-173 21 -289 124.5t-129 268.5zM256 1094q0 -50 18.5 -91.5 t54 -74t76.5 -57t97 -48.5v493q-108 -12 -177 -69t-69 -153zM625 116q122 9 199 71.5t77 164.5q0 51 -21 94t-61.5 77t-86 59t-107.5 50v-516z" />
<glyph unicode="%" horiz-adv-x="1533" d="M123 1151q0 129 89.5 218t223.5 89t224 -89t90 -218t-89 -218t-225 -89q-134 0 -223.5 89t-89.5 218zM213 14.5q-8 14.5 6 34.5l952 1358q20 27 50 27h67q25 0 33 -15t-6 -35l-955 -1357q-20 -27 -49 -27h-65q-25 0 -33 14.5zM254 1151q0 -78 51 -131t131 -53t131 53 t51 131t-51 131t-131 53t-131 -53t-51 -131zM784 283q0 129 90 218t224 89t223.5 -89t89.5 -218t-89.5 -218.5t-223.5 -89.5t-224 89.5t-90 218.5zM915 283q0 -78 51.5 -131.5t131.5 -53.5t131 53.5t51 131.5t-51 131t-131 53t-131.5 -53t-51.5 -131z" />
<glyph unicode="&#x26;" horiz-adv-x="1339" d="M102 395q0 121 60.5 221.5t171.5 169.5q-56 64 -84.5 129.5t-28.5 153.5q0 118 60 208t155.5 135.5t208.5 45.5q79 0 152.5 -23.5t134.5 -68t100.5 -116t47.5 -159.5q3 -42 -41 -42h-61q-37 0 -42 40q-14 113 -95.5 171.5t-195.5 58.5q-122 0 -201 -67t-79 -183 q0 -67 34.5 -126.5t98.5 -123.5l496 -508q70 119 78 311q2 42 42 42h61q41 0 41 -27q-5 -262 -120 -430l153 -157q20 -20 13.5 -35t-34.5 -15h-94q-30 0 -51 21l-81 83q-157 -129 -412 -129q-213 0 -350.5 115.5t-137.5 304.5zM246 395q0 -126 95.5 -203t248.5 -77 q196 0 312 90l-471 480q-94 -52 -139.5 -127.5t-45.5 -162.5z" />
<glyph unicode="'" horiz-adv-x="348" d="M104 1397q-3 37 35 37h70q38 0 35 -37l-17 -336q-3 -37 -39 -37h-28q-36 0 -39 37z" />
<glyph unicode="(" horiz-adv-x="544" d="M123 717q0 460 211 891q13 30 47 30h49q23 0 31.5 -13.5t-0.5 -35.5q-203 -428 -203 -872q0 -445 203 -873q9 -22 0.5 -35.5t-31.5 -13.5h-49q-34 0 -47 31q-211 431 -211 891z" />
<glyph unicode=")" horiz-adv-x="544" d="M83.5 -191.5q-8.5 13.5 0.5 35.5q203 428 203 873q0 444 -203 872q-9 22 -0.5 35.5t31.5 13.5h49q34 0 47 -30q211 -431 211 -891t-211 -891q-13 -31 -47 -31h-49q-23 0 -31.5 13.5z" />
<glyph unicode="*" horiz-adv-x="802" d="M123 1171v41q0 35 37 35l149 -4l-84 123q-21 30 11 49l38 25q34 20 52 -15l75 -133l76 133q18 35 51 15l39 -23q33 -20 11 -51l-84 -123l149 4q37 0 37 -35v-41q0 -34 -37 -34l-149 4l84 -123q21 -30 -11 -49l-39 -25q-33 -20 -51 14l-76 134l-75 -134q-18 -34 -52 -14 l-38 23q-33 20 -11 51l84 123l-149 -4q-37 0 -37 34z" />
<glyph unicode="+" horiz-adv-x="1105" d="M123 692v49q0 41 41 41h323v324q0 41 41 41h50q40 0 40 -41v-324h324q41 0 41 -41v-49q0 -41 -41 -41h-324v-323q0 -41 -40 -41h-50q-41 0 -41 41v323h-323q-41 0 -41 41z" />
<glyph unicode="," horiz-adv-x="471" d="M143 41v102q0 41 41 41h103q41 0 41 -41v-143q0 -102 -39 -169.5t-115 -90.5q-13 -3 -22 5t-9 22v24q0 21 21 35q35 17 53.5 55.5t18.5 118.5h-52q-41 0 -41 41z" />
<glyph unicode="-" d="M164 608v49q0 41 41 41h655q41 0 41 -41v-49q0 -41 -41 -41h-655q-41 0 -41 41z" />
<glyph unicode="." horiz-adv-x="471" d="M143 41v102q0 41 41 41h103q41 0 41 -41v-102q0 -41 -41 -41h-103q-41 0 -41 41z" />
<glyph unicode="/" horiz-adv-x="1085" d="M98 -166l793 1780q11 24 37 24h33q19 0 26 -10t0 -29l-792 -1779q-11 -25 -37 -25h-33q-19 0 -26.5 10.5t-0.5 28.5z" />
<glyph unicode="0" horiz-adv-x="1290" d="M102 717q0 222 62 388t185.5 259.5t295.5 93.5t295.5 -93.5t185.5 -259.5t62 -388t-62 -388.5t-185.5 -260t-295.5 -93.5t-295.5 93.5t-185.5 260t-62 388.5zM246 717q0 -287 105 -444.5t294 -157.5t294 157.5t105 444.5t-105 444.5t-294 157.5t-294 -157.5t-105 -444.5z " />
<glyph unicode="1" horiz-adv-x="696" d="M31 1139v69q0 33 28 49l306 164q21 13 51 13h76q40 0 40 -41v-1352q0 -41 -40 -41h-62q-41 0 -41 41v1235l-309 -166q-22 -12 -35.5 -3.5t-13.5 32.5z" />
<glyph unicode="2" horiz-adv-x="1075" d="M82 41v59q0 30 20 50l496 499q105 105 163 196t58 183q0 138 -85 214.5t-204 76.5q-124 0 -208 -62.5t-95 -187.5q-3 -41 -43 -41h-61q-42 0 -39 43q7 95 47 170.5t102.5 122t138 70.5t158.5 24q81 0 157.5 -28.5t138.5 -80.5t99.5 -135.5t37.5 -185.5q0 -125 -70 -239.5 t-197 -241.5l-409 -408h665q41 0 41 -41v-57q0 -41 -41 -41h-829q-41 0 -41 41z" />
<glyph unicode="3" horiz-adv-x="1085" d="M43 373q-3 43 39 43h63q38 0 41 -41q13 -125 106.5 -192.5t229.5 -67.5q146 0 242 79t96 222t-96 222t-242 79v3l-2 -3h-59q-41 0 -41 41v24q0 31 16 52l340 464h-633q-41 0 -41 41v54q0 41 41 41h758q41 0 41 -41v-66q0 -30 -16 -51l-318 -438q172 -23 284 -132.5 t112 -289.5q0 -104 -39.5 -189t-107 -139t-154 -83.5t-181.5 -29.5q-122 0 -226 45t-173.5 137t-79.5 216z" />
<glyph unicode="4" horiz-adv-x="1167" d="M51 328v67q0 27 12 51l504 959q15 29 49 29h70q23 0 31.5 -14t-2.5 -36l-506 -962h600v397q0 41 41 41h61q41 0 41 -41v-397h144q41 0 41 -41v-53q0 -41 -41 -41h-144v-246q0 -41 -41 -41h-61q-41 0 -41 41v246h-717q-41 0 -41 41z" />
<glyph unicode="5" horiz-adv-x="1126" d="M84 373q-3 43 39 43h63q38 0 41 -41q13 -125 106.5 -192.5t229.5 -67.5q146 0 242 79t96 222t-96 222t-242 79h-366q-44 0 -41 43l47 635q3 39 41 39h708q41 0 41 -41v-54q0 -41 -41 -41h-616l-31 -442h258q96 0 182 -29t153 -83.5t106.5 -139t39.5 -188.5t-39.5 -189 t-106.5 -139t-153.5 -83.5t-181.5 -29.5q-122 0 -226 45t-173.5 137t-79.5 216z" />
<glyph unicode="6" horiz-adv-x="1085" d="M61 449q0 164 89 286h-1l451 672q18 27 49 27h72q25 0 33 -15t-6 -35l-320 -474q54 12 115 12q210 0 345.5 -131.5t135.5 -341.5t-135.5 -341.5t-345.5 -131.5q-211 0 -346.5 132t-135.5 341zM205 449q0 -151 93 -242.5t245 -91.5t245 91.5t93 242.5t-93 242t-245 91 t-245 -91t-93 -242z" />
<glyph unicode="7" horiz-adv-x="1003" d="M41 1339v54q0 41 41 41h799q41 0 41 -41v-68q0 -22 -11 -51l-518 -1243q-11 -31 -47 -31h-63q-23 0 -31.5 12.5t0.5 34.5l520 1251h-690q-41 0 -41 41z" />
<glyph unicode="8" horiz-adv-x="1122" d="M82 389q0 118 64.5 209.5t173.5 141.5q-87 50 -139 132.5t-52 188.5q0 98 37 176t99.5 125t138 71.5t157.5 24.5t157.5 -24.5t138 -71.5t99.5 -125t37 -176q0 -106 -52 -188.5t-139 -132.5q109 -50 173.5 -141.5t64.5 -209.5q0 -98 -38 -178t-104 -131t-152.5 -78 t-184.5 -27t-184.5 27t-152.5 78t-104 131t-38 178zM225 389q0 -134 92 -204t244 -70t244 70t92 204t-92 204.5t-244 70.5t-244 -70.5t-92 -204.5zM272 1061q0 -123 85 -190.5t204 -67.5t204 67.5t85 190.5q0 130 -83.5 194t-205.5 64t-205.5 -64t-83.5 -194z" />
<glyph unicode="9" horiz-adv-x="1085" d="M61 985q0 209 135.5 341t346.5 132q210 0 345.5 -131.5t135.5 -341.5q0 -166 -88 -287l-451 -671q-18 -27 -49 -27h-71q-25 0 -33 14.5t6 34.5l319 475q-54 -12 -114 -12q-211 0 -346.5 132t-135.5 341zM205 985q0 -151 93 -242.5t245 -91.5t245 91.5t93 242.5t-93 242.5 t-245 91.5t-245 -91.5t-93 -242.5z" />
<glyph unicode=":" horiz-adv-x="471" d="M143 41v102q0 41 41 41h103q41 0 41 -41v-102q0 -41 -41 -41h-103q-41 0 -41 41zM143 881v102q0 41 41 41h103q41 0 41 -41v-102q0 -41 -41 -41h-103q-41 0 -41 41z" />
<glyph unicode=";" horiz-adv-x="471" d="M143 41v102q0 41 41 41h103q41 0 41 -41v-143q0 -102 -39 -169.5t-115 -90.5q-13 -3 -22 5t-9 22v24q0 21 21 35q35 17 53.5 55.5t18.5 118.5h-52q-41 0 -41 41zM143 881v102q0 41 41 41h103q41 0 41 -41v-102q0 -41 -41 -41h-103q-41 0 -41 41z" />
<glyph unicode="&#x3c;" d="M123 680v74q0 34 31 49l741 323q22 9 34.5 0t12.5 -32v-64q0 -34 -31 -47l-635 -266l635 -266q31 -13 31 -48v-63q0 -23 -12.5 -32.5t-34.5 -0.5l-741 324q-31 15 -31 49z" />
<glyph unicode="=" horiz-adv-x="1105" d="M123 487v50q0 41 41 41h778q41 0 41 -41v-50q0 -41 -41 -41h-778q-41 0 -41 41zM123 897v49q0 41 41 41h778q41 0 41 -41v-49q0 -41 -41 -41h-778q-41 0 -41 41z" />
<glyph unicode="&#x3e;" d="M123 340v63q0 35 31 48l634 266l-634 266q-31 13 -31 47v64q0 23 12.5 32t34.5 0l741 -323q31 -15 31 -49v-74q0 -34 -31 -49l-741 -324q-22 -9 -34.5 0.5t-12.5 32.5z" />
<glyph unicode="?" horiz-adv-x="1095" d="M84 1092q10 117 77 202t165 124.5t215 39.5q115 0 211 -41t158.5 -129t62.5 -209q0 -62 -20 -117t-52 -98t-71.5 -83.5t-80 -79.5t-75.5 -79t-60 -90t-32 -104q-3 -39 -41 -39h-64q-42 0 -39 43q6 66 30.5 124t59.5 101.5t76 84t80.5 78t72 75.5t52.5 85t20 99 q0 119 -81 179.5t-207 60.5q-128 0 -214.5 -58t-99.5 -171q-3 -41 -41 -41h-63q-42 0 -39 43zM416 41v102q0 41 41 41h102q41 0 41 -41v-102q0 -41 -41 -41h-102q-41 0 -41 41z" />
<glyph unicode="@" horiz-adv-x="1626" d="M82 512q0 203 96.5 372.5t268 269t380.5 99.5q133 0 249.5 -40t201 -109t145.5 -158.5t91 -190t30 -202.5q0 -112 -26 -199t-69.5 -136.5t-94 -74t-105.5 -24.5q-86 0 -147.5 44t-82.5 132q-87 -111 -226 -111q-142 0 -237 94.5t-95 233.5t95 233.5t237 94.5 q131 0 217 -99v43q0 41 41 41h45q41 0 41 -41v-401q0 -197 133 -197q91 0 152 89.5t61 277.5q0 180 -86.5 328t-237 231.5t-332.5 83.5q-139 0 -265 -52t-218 -142t-146.5 -218t-54.5 -272q0 -195 93.5 -351.5t258.5 -244.5t369 -88q197 0 334 51q23 7 23 -16v-19 q0 -19 -13 -22q-145 -51 -344 -51q-221 0 -399.5 95t-280.5 264.5t-102 381.5zM588 512q0 -91 62 -148t151 -57q87 0 148 57t61 148t-61 148t-148 57q-89 0 -151 -57t-62 -148z" />
<glyph unicode="A" horiz-adv-x="1290" d="M39 47l520 1354q13 33 47 33h78q34 0 47 -33l520 -1354q4 -12 4 -21q0 -26 -36 -26h-66q-34 0 -47 33l-121 319h-680l-121 -319q-13 -33 -47 -33h-65q-23 0 -32 12q-5 7 -5 16t4 19zM356 487h579l-290 768z" />
<glyph unicode="B" horiz-adv-x="1402" d="M164 41v1352q0 41 41 41h102h428q165 0 268 -101.5t103 -249.5q0 -96 -48 -177q124 -54 198.5 -171.5t74.5 -263.5q0 -128 -58 -236t-162.5 -171.5t-231.5 -63.5h-633h-41q-41 0 -41 41zM307 135h551q147 0 238.5 97t91.5 239q0 143 -90.5 239.5t-237.5 96.5h-553v-672z M307 942h574q19 0 29 -1q53 61 53 142q0 93 -61.5 154t-166.5 61h-428v-356z" />
<glyph unicode="C" horiz-adv-x="1566" d="M82 717q0 152 56 288.5t154.5 236t239 158t302.5 58.5q221 0 400 -118t255 -310q3 -10 3 -17q0 -9 -5 -17q-9 -12 -31 -13h-72q-34 0 -49 31q-64 138 -199.5 221.5t-301.5 83.5q-177 0 -317 -81t-216 -218t-76 -303t76 -303t216 -218t317 -81q166 0 301.5 83.5 t199.5 221.5q15 31 49 31h72q22 0 32 -12q6 -7 6 -17q0 -7 -3 -14q-76 -194 -255.5 -313.5t-401.5 -119.5q-162 0 -303 58.5t-239 158.5t-154 236.5t-56 288.5z" />
<glyph unicode="D" horiz-adv-x="1515" d="M164 41v1352q0 41 41 41h102h451q145 0 271.5 -56.5t215 -153.5t139 -228.5t50.5 -278.5t-50.5 -278.5t-139 -228.5t-215 -153.5t-271.5 -56.5h-533h-20q-41 0 -41 41zM307 135h451q156 0 279.5 78.5t190 211t66.5 292.5t-66.5 292.5t-190 210.5t-279.5 78h-451v-1163z " />
<glyph unicode="E" d="M164 41v1352q0 41 41 41h102h625q41 0 41 -41v-54q0 -41 -41 -41h-625v-507h574q41 0 41 -41v-54q0 -41 -41 -41h-574v-520h635q41 0 41 -41v-53q0 -41 -41 -41h-717h-20q-41 0 -41 41z" />
<glyph unicode="F" horiz-adv-x="1013" d="M164 41v1352q0 41 41 41h102h625q41 0 41 -41v-54q0 -41 -41 -41h-625v-569h594q41 0 41 -41v-53q0 -41 -41 -41h-594v-553q0 -41 -41 -41h-61q-41 0 -41 41z" />
<glyph unicode="G" horiz-adv-x="1628" d="M82 717q0 152 56 288.5t153 236t235.5 158t296.5 58.5q221 0 401 -118t255 -310q7 -22 -2 -34.5t-31 -12.5h-72q-34 0 -49 31q-64 138 -200 221.5t-302 83.5q-129 0 -241.5 -47.5t-190 -128.5t-122 -191.5t-44.5 -234.5t44.5 -234.5t122 -191.5t190 -128.5t241.5 -47.5 q145 0 263.5 49t192 150t73.5 239v35h-451q-41 0 -41 41v53q0 41 41 41h553q41 0 41 -41v-94v-547q0 -41 -41 -41h-61q-41 0 -41 41v179q-80 -121 -220.5 -183t-308.5 -62q-158 0 -296.5 58.5t-235.5 158.5t-153 236.5t-56 288.5z" />
<glyph unicode="H" horiz-adv-x="1290" d="M164 41v1352q0 41 41 41h61q41 0 41 -41v-588h676v588q0 41 41 41h61q41 0 41 -41v-1352q0 -41 -41 -41h-61q-41 0 -41 41v629h-676v-629q0 -41 -41 -41h-61q-41 0 -41 41z" />
<glyph unicode="I" horiz-adv-x="471" d="M164 41v1352q0 41 41 41h61q41 0 41 -41v-1352q0 -41 -41 -41h-61q-41 0 -41 41z" />
<glyph unicode="J" horiz-adv-x="1085" d="M43 383v6q0 37 39 37h61q40 0 43 -41q11 -139 95 -204.5t211 -65.5q87 0 154 28.5t110 96t43 166.5v987q0 41 41 41h61q41 0 41 -41v-987q0 -106 -37.5 -190.5t-101 -135.5t-143 -78t-168.5 -27q-85 0 -161 24.5t-139 72.5t-102.5 128t-46.5 183z" />
<glyph unicode="K" horiz-adv-x="1187" d="M164 41v1352q0 41 41 41h61q41 0 41 -41v-615l631 635q21 21 49 21h88q26 0 34 -16.5t-11 -35.5l-639 -646l659 -685q14 -15 14 -27q0 -4 -2 -8q-6 -16 -32 -16h-88q-34 0 -52 20l-651 675v-654q0 -41 -41 -41h-61q-41 0 -41 41z" />
<glyph unicode="L" horiz-adv-x="1003" d="M164 41v1352q0 41 41 41h61q41 0 41 -41v-1258h615q41 0 41 -41v-53q0 -41 -41 -41h-676h-41q-41 0 -41 41z" />
<glyph unicode="M" horiz-adv-x="1638" d="M164 41v1352q0 41 41 41h61h45q34 0 47 -31l461 -993l461 993q13 31 47 31h64h43q41 0 41 -41v-1352q0 -41 -41 -41h-62q-41 0 -41 41v1150l-426 -912q-13 -31 -47 -31h-78q-34 0 -47 31l-426 912v-1150q0 -41 -41 -41h-61q-41 0 -41 41z" />
<glyph unicode="N" horiz-adv-x="1290" d="M164 41v1352q0 41 41 41h49q34 0 49 -27l680 -1120v1106q0 41 41 41h61q41 0 41 -41v-1352q0 -41 -41 -41h-49q-34 0 -49 27l-680 1120v-1106q0 -41 -41 -41h-61q-41 0 -41 41z" />
<glyph unicode="O" horiz-adv-x="1646" d="M82 717q0 151 57.5 288t156 236.5t236 158t291.5 58.5t292 -58.5t236.5 -158t156 -236.5t57.5 -288q0 -202 -97.5 -372.5t-268.5 -270t-376 -99.5q-154 0 -291.5 58.5t-236 158t-156 237t-57.5 288.5zM225 717q0 -165 78 -303t215.5 -218.5t304.5 -80.5t304.5 80.5 t215.5 218.5t78 303t-78 303t-215.5 218.5t-304.5 80.5t-304.5 -80.5t-215.5 -218.5t-78 -303z" />
<glyph unicode="P" horiz-adv-x="1187" d="M164 41v1352q0 41 41 41h102h369q178 0 304 -126t126 -304q0 -177 -126 -304t-304 -127h-369v-532q0 -41 -41 -41h-61q-41 0 -41 41zM307 709h369q118 0 202.5 86.5t84.5 208.5q0 123 -84 208.5t-203 85.5h-369v-589z" />
<glyph unicode="Q" horiz-adv-x="1656" d="M82 717q0 151 58.5 288.5t157.5 236.5t236.5 157.5t288.5 58.5q202 0 372.5 -99t270 -269.5t99.5 -372.5q0 -149 -56.5 -283.5t-157.5 -237.5l162 -186q13 -15 13 -29q0 -15 -17 -28l-39 -31q-14 -11 -27 -11q-16 0 -30 17l-161 184q-193 -137 -429 -137 q-202 0 -372.5 99.5t-269.5 270t-99 372.5zM225 717q0 -164 79.5 -302.5t217.5 -219t301 -80.5q184 0 336 103l-176 200q-13 15 -13 29q0 15 17 28l39 31q14 11 27 11q16 0 30 -17l174 -198q78 82 121 189t43 226q0 164 -79.5 302.5t-217.5 219t-301 80.5t-301 -80.5 t-217.5 -219t-79.5 -302.5z" />
<glyph unicode="R" horiz-adv-x="1290" d="M164 41v1352q0 41 41 41h102h369q178 0 304 -126t126 -304q0 -146 -88.5 -261t-226.5 -154l475 -538q12 -14 12 -26q0 -5 -2 -9q-7 -16 -33 -16h-82q-31 0 -51 23l-484 550h-319v-532q0 -41 -41 -41h-61q-41 0 -41 41zM307 709h369q118 0 202.5 86.5t84.5 208.5 q0 123 -84 208.5t-203 85.5h-369v-589z" />
<glyph unicode="S" horiz-adv-x="1126" d="M84 373v6q0 37 39 37h63q38 0 41 -41q15 -125 111.5 -192.5t245.5 -67.5q136 0 226.5 67t90.5 180q0 45 -18 84t-45 66t-72.5 53.5t-85.5 44t-100 39.5q-169 64 -221 90q-161 81 -210 202q-26 63 -26 142q0 115 62 202t159 130t211 43q115 0 211.5 -41.5t160.5 -126 t74 -198.5v-6q0 -37 -38 -37h-64q-38 0 -41 38q-13 111 -96 171.5t-207 60.5t-206.5 -63t-82.5 -173q0 -48 17.5 -87.5t42.5 -66.5t71.5 -54t84 -43.5t100.5 -40.5q174 -68 235 -99q167 -89 210 -219q17 -51 17 -111q0 -116 -65 -205.5t-169 -135.5t-226 -46 q-131 0 -239.5 45t-179.5 137t-81 216z" />
<glyph unicode="T" horiz-adv-x="1024" d="M41 1339v54q0 41 41 41h502h358q41 0 41 -41v-54q0 -41 -41 -41h-358v-1257q0 -41 -41 -41h-62q-41 0 -41 41v1257h-358q-41 0 -41 41z" />
<glyph unicode="U" horiz-adv-x="1269" d="M143 426v967q0 41 41 41h62q41 0 41 -41v-967q0 -151 94 -231t254 -80t254 80t94 231v967q0 41 41 41h61q41 0 41 -41v-967q0 -142 -66.5 -246t-176.5 -154.5t-248 -50.5t-248 50.5t-177 154.5t-67 246z" />
<glyph unicode="V" horiz-adv-x="1245" d="M37 1386q-3 9 -3 16q0 10 6 18q10 14 32 14h65q36 0 47 -33l439 -1223l438 1223q11 33 47 33h66q22 0 32 -14q5 -8 5 -18q0 -8 -3 -16l-499 -1353q-13 -33 -47 -33h-78q-34 0 -47 33z" />
<glyph unicode="W" horiz-adv-x="1761" d="M35 1386q-2 9 -2 16q-1 11 5 19q10 13 32 13h55q36 0 45 -35l391 -1254l250 801l-137 440q-6 22 3.5 35t31.5 13h55q36 0 45 -35l391 -1254l391 1254q9 35 45 35h56q22 0 31 -13q5 -8 5 -19q0 -7 -2 -16l-421 -1351q-9 -35 -45 -35h-119q-36 0 -45 35l-216 690l-214 -690 q-9 -35 -45 -35h-119q-36 0 -45 35z" />
<glyph unicode="X" horiz-adv-x="1167" d="M67 14q-3 5 -3 12q0 10 8 23l433 692l-403 643q-12 20 -4.5 35t31.5 15h68q33 0 49 -27l338 -540l338 540q16 27 49 27h67q24 0 31.5 -15t-4.5 -35l-403 -643l434 -692q7 -12 7 -23q-1 -6 -3 -12q-8 -14 -31 -14h-68q-33 0 -49 27l-368 589l-369 -589q-16 -27 -49 -27 h-68q-24 0 -31 14z" />
<glyph unicode="Y" horiz-adv-x="1177" d="M47 1419q8 15 33 15h70q31 0 49 -27l390 -599l390 599q18 27 49 27h70q25 0 32 -15q3 -5 3 -11q0 -11 -9 -24l-465 -716v-627q0 -41 -41 -41h-61q-41 0 -41 41v630l-463 713q-9 13 -9 23q0 7 3 12z" />
<glyph unicode="Z" d="M82 41v68q0 24 14 49l727 1140h-680q-41 0 -41 41v54q0 41 41 41h799q41 0 41 -41v-68q0 -24 -14 -49l-727 -1141h721q41 0 41 -41v-53q0 -41 -41 -41h-840q-41 0 -41 41z" />
<glyph unicode="[" horiz-adv-x="532" d="M123 -164v1761q0 41 41 41h94h234q40 0 40 -41v-49q0 -41 -40 -41h-234v-1581h234q40 0 40 -41v-49q0 -41 -40 -41h-287h-41q-41 0 -41 41z" />
<glyph unicode="\" horiz-adv-x="1085" d="M98 1599q-7 18 0.5 28.5t26.5 10.5h33q26 0 37 -24l792 -1780q7 -19 0 -29t-26 -10h-33q-26 0 -37 25z" />
<glyph unicode="]" horiz-adv-x="532" d="M0 -115q0 41 41 41h233v1581h-233q-41 0 -41 41v49q0 41 41 41h287h41q41 0 41 -41v-1761q0 -41 -41 -41h-95h-233q-41 0 -41 41v49z" />
<glyph unicode="^" horiz-adv-x="1024" d="M107 833.5q-8 14.5 4 34.5l315 537q16 29 49 29h74q33 0 49 -29l315 -537q12 -20 4 -34.5t-32 -14.5h-68q-33 0 -49 29l-256 436l-256 -436q-16 -29 -49 -29h-68q-24 0 -32 14.5z" />
<glyph unicode="_" d="M82 -199q0 41 41 41h819q41 0 41 -41v-49q0 -41 -41 -41h-819q-41 0 -41 41v49z" />
<glyph unicode="`" horiz-adv-x="409" d="M66.5 1421q-6.5 -13 7.5 -32l147 -199q16 -23 45 -23h51q22 0 29 13t-4 32l-123 197q-14 25 -43 25h-80q-23 0 -29.5 -13z" />
<glyph unicode="a" horiz-adv-x="1019" d="M82 305q0 80 30.5 144.5t82.5 104t117 60.5t137 21q100 0 182.5 -34.5t134.5 -99.5v165q0 129 -72.5 190.5t-181.5 61.5q-95 0 -165.5 -44.5t-84.5 -128.5q-9 -38 -43 -38h-53q-41 0 -41 38v5q17 132 123 215.5t264 83.5q174 0 281.5 -103.5t107.5 -279.5v-625 q0 -41 -41 -41h-53q-41 0 -41 41v74q-99 -140 -317 -140q-72 0 -137 21t-117 60.5t-82.5 104t-30.5 144.5zM217 305q0 -92 66.5 -147.5t197.5 -55.5q123 0 204 57.5t81 145.5q0 92 -80 147.5t-205 55.5q-131 0 -197.5 -55.5t-66.5 -147.5z" />
<glyph unicode="b" horiz-adv-x="1302" d="M143 41v1352q0 41 41 41h54q41 0 41 -41v-569q65 105 172 165t241 60q143 0 264.5 -70.5t193 -194.5t71.5 -272t-71.5 -272t-193 -194.5t-264.5 -70.5q-134 0 -241 60t-172 165v-159q0 -41 -41 -41h-54q-41 0 -41 41zM279 512q0 -171 116.5 -288.5t286.5 -117.5 t286.5 117.5t116.5 288.5t-116.5 288.5t-286.5 117.5t-286.5 -117.5t-116.5 -288.5z" />
<glyph unicode="c" horiz-adv-x="1173" d="M82 512q0 112 41 211.5t112 171t171.5 113t214.5 41.5q161 0 290 -84t185 -222q4 -10 4 -18q0 -9 -5 -16q-10 -13 -32 -13h-59q-34 0 -50 31q-46 88 -134.5 139.5t-198.5 51.5q-170 0 -287 -118t-117 -288t117 -288t287 -118q111 0 199.5 51.5t133.5 139.5q16 31 50 31 h59q22 0 32 -13q5 -7 5 -16q0 -8 -4 -18q-54 -138 -183.5 -222t-291.5 -84q-114 0 -214.5 41.5t-171.5 113t-112 171t-41 211.5z" />
<glyph unicode="d" horiz-adv-x="1302" d="M82 512q0 149 71.5 272.5t192.5 194t264 70.5q134 0 241.5 -60t172.5 -165v569q0 41 41 41h53q41 0 41 -41v-1352q0 -41 -41 -41h-53q-41 0 -41 41v159q-65 -105 -172.5 -165t-241.5 -60q-143 0 -264 70.5t-192.5 194t-71.5 272.5zM217 512q0 -170 117 -288t287 -118 t286.5 117.5t116.5 288.5t-116.5 288.5t-286.5 117.5t-287 -118t-117 -288z" />
<glyph unicode="e" horiz-adv-x="1165" d="M82 512q0 150 64 272t184.5 193.5t275.5 71.5q151 0 266.5 -77.5t173.5 -199t58 -264.5v-25q-3 -39 -43 -39h-96h-744q20 -156 125 -247t262 -91q99 0 176 40t117 106q19 29 49 29h66q24 0 34 -11t3 -30q-54 -119 -173.5 -192t-273.5 -73q-233 0 -378.5 151.5 t-145.5 385.5zM221 575h744q-18 163 -119 253t-240 90q-159 0 -262.5 -95t-122.5 -248z" />
<glyph unicode="f" horiz-adv-x="645" d="M41 934v49q0 41 41 41h133v41q0 191 101 295q98 100 278 100h10q20 0 30.5 -12t10.5 -31v-49q0 -39 -43 -39h-8q-122 0 -182 -63q-62 -65 -62 -201v-41h254q41 0 41 -41v-49q0 -41 -41 -41h-254v-852q0 -41 -41 -41h-53q-41 0 -41 41v852h-133q-41 0 -41 41z" />
<glyph unicode="g" horiz-adv-x="1302" d="M82 512q0 149 71.5 272.5t192.5 194t264 70.5q134 0 241.5 -60t172.5 -165v159q0 41 41 41h53q41 0 41 -41v-942q0 -113 -41.5 -204.5t-113 -150t-163.5 -89.5t-196 -31q-116 0 -222.5 44t-178.5 122.5t-86 173.5v5q0 38 41 38h53q34 0 43 -37q23 -84 117 -149.5 t233 -65.5q183 0 281 92t98 252v159q-65 -105 -172.5 -165t-241.5 -60q-143 0 -264 70.5t-192.5 194t-71.5 272.5zM217 512q0 -170 117 -288t287 -118t286.5 117.5t116.5 288.5t-116.5 288.5t-286.5 117.5t-287 -118t-117 -288z" />
<glyph unicode="h" horiz-adv-x="1060" d="M143 41v1352q0 41 41 41h54q41 0 41 -41v-505q107 161 315 161q147 0 247.5 -103.5t100.5 -275.5v-629q0 -41 -41 -41h-53q-41 0 -41 41v629q0 118 -66 183t-172 65q-55 0 -104.5 -18t-92 -56t-68 -106.5t-25.5 -159.5v-537q0 -41 -41 -41h-54q-41 0 -41 41z" />
<glyph unicode="i" horiz-adv-x="421" d="M143 41v942q0 41 41 41h54q41 0 41 -41v-942q0 -41 -41 -41h-54q-41 0 -41 41zM143 1270v123q0 41 41 41h54q41 0 41 -41v-123q0 -41 -41 -41h-54q-41 0 -41 41z" />
<glyph unicode="j" horiz-adv-x="471" d="M-41 -346q0 41 39 41h7q95 0 141 51q47 52 47 172v1065q0 41 40 41h54q41 0 41 -41v-1065q0 -173 -86 -265q-82 -89 -232 -89h-10q-41 0 -41 41v49zM193 1270v123q0 41 40 41h54q41 0 41 -41v-123q0 -41 -41 -41h-54q-40 0 -40 41z" />
<glyph unicode="k" horiz-adv-x="1011" d="M143 41v1352q0 41 41 41h54q41 0 41 -41v-823l471 434q20 20 49 20h78q28 0 33.5 -15.5t-15.5 -35.5l-477 -441l500 -481q15 -14 15 -27q1 -4 -1 -8q-6 -16 -35 -16h-78q-29 0 -49 20l-491 473v-452q0 -41 -41 -41h-54q-41 0 -41 41z" />
<glyph unicode="l" horiz-adv-x="421" d="M143 41v1393q0 41 41 41h54q41 0 41 -41v-1393q0 -41 -41 -41h-54q-41 0 -41 41z" />
<glyph unicode="m" horiz-adv-x="1572" d="M143 41v942q0 41 41 41h54q41 0 41 -41v-77q100 143 274 143q87 0 160.5 -45t113.5 -128q102 173 303 173q137 0 230.5 -95t93.5 -264v-649q0 -41 -41 -41h-53q-41 0 -41 41v649q0 115 -57 171.5t-146 56.5q-42 0 -82.5 -15t-80 -47t-63.5 -93.5t-24 -144.5v-577 q0 -41 -41 -41h-53q-41 0 -41 41v649q0 115 -57 171.5t-146 56.5q-42 0 -82.5 -15t-79.5 -47t-63 -93.5t-24 -144.5v-577q0 -41 -41 -41h-54q-41 0 -41 41z" />
<glyph unicode="n" horiz-adv-x="1060" d="M143 41v942q0 41 41 41h54q41 0 41 -41v-95q107 161 315 161q147 0 247.5 -103.5t100.5 -275.5v-629q0 -41 -41 -41h-53q-41 0 -41 41v629q0 118 -66 183t-172 65q-55 0 -104.5 -18t-92 -56t-68 -106.5t-25.5 -159.5v-537q0 -41 -41 -41h-54q-41 0 -41 41z" />
<glyph unicode="o" horiz-adv-x="1241" d="M82 512q0 149 72 272.5t195.5 194t271.5 70.5q225 0 381.5 -155.5t156.5 -381.5t-156.5 -381.5t-381.5 -155.5q-148 0 -271.5 70.5t-195.5 194t-72 272.5zM217 512q0 -170 117 -288t287 -118t286.5 117.5t116.5 288.5t-116.5 288.5t-286.5 117.5t-287 -118t-117 -288z " />
<glyph unicode="p" horiz-adv-x="1302" d="M143 -369v1352q0 41 41 41h54q41 0 41 -41v-159q65 105 172 165t241 60q143 0 264.5 -70.5t193 -194.5t71.5 -272t-71.5 -272t-193 -194.5t-264.5 -70.5q-134 0 -241 60t-172 165v-569q0 -41 -41 -41h-54q-41 0 -41 41zM279 512q0 -171 116.5 -288.5t286.5 -117.5 t286.5 117.5t116.5 288.5t-116.5 288.5t-286.5 117.5t-286.5 -117.5t-116.5 -288.5z" />
<glyph unicode="q" horiz-adv-x="1302" d="M82 512q0 149 71.5 272.5t192.5 194t264 70.5q134 0 241.5 -60t172.5 -165v159q0 41 41 41h53q41 0 41 -41v-1352q0 -41 -41 -41h-53q-41 0 -41 41v569q-65 -105 -172.5 -165t-241.5 -60q-143 0 -264 70.5t-192.5 194t-71.5 272.5zM217 512q0 -170 117 -288t287 -118 t286.5 117.5t116.5 288.5t-116.5 288.5t-286.5 117.5t-287 -118t-117 -288z" />
<glyph unicode="r" horiz-adv-x="643" d="M143 41v942q0 41 41 41h54q41 0 41 -41v-116q95 158 282 171h5q36 0 36 -39v-49q0 -19 -7.5 -30t-19.5 -11q-61 -4 -112 -24t-93.5 -59t-66.5 -104.5t-24 -152.5v-528q0 -41 -41 -41h-54q-41 0 -41 41z" />
<glyph unicode="s" horiz-adv-x="942" d="M94 254v5q0 38 41 38h53q34 0 43 -39q13 -80 78.5 -116t161.5 -36q105 0 174.5 40.5t69.5 121.5q0 52 -33 88t-86.5 56t-117.5 36t-128 37.5t-117.5 51.5t-86.5 85.5t-33 133.5q0 126 101.5 209.5t256.5 83.5q146 0 243.5 -75.5t112.5 -203.5v-5q0 -38 -41 -38h-53 q-34 0 -43 39q-13 79 -74.5 115.5t-144.5 36.5q-91 0 -157 -41t-66 -121q0 -52 33 -88t86.5 -56t117.5 -36t128 -37.5t117.5 -51.5t86.5 -85.5t33 -133.5q0 -127 -105 -210t-274 -83q-159 0 -260.5 75t-116.5 204z" />
<glyph unicode="t" horiz-adv-x="645" d="M41 934v49q0 41 41 41h174v287q0 41 41 41h53q41 0 41 -41v-287h172q41 0 41 -41v-49q0 -41 -41 -41h-172v-852q0 -41 -41 -41h-53q-41 0 -41 41v852h-174q-41 0 -41 41z" />
<glyph unicode="u" horiz-adv-x="1060" d="M119 354v629q0 41 41 41h53q41 0 41 -41v-629q0 -118 66 -183t172 -65q55 0 104.5 18t92 56t68 106.5t25.5 159.5v537q0 41 41 41h54q40 0 40 -41v-942q0 -41 -40 -41h-54q-41 0 -41 41v95q-107 -161 -315 -161q-147 0 -247.5 103.5t-100.5 275.5z" />
<glyph unicode="v" horiz-adv-x="962" d="M39 977q-3 10 -3 17q0 10 5 18q9 12 31 12h57q36 0 47 -33l305 -842l305 842q11 33 48 33h57q22 0 31 -12q5 -7 5 -18q0 -8 -3 -17l-349 -944q-11 -33 -47 -33h-51h-43q-34 0 -47 33z" />
<glyph unicode="w" horiz-adv-x="1392" d="M37 977q-3 10 -3 17q0 10 5 18q9 12 31 12h59q34 0 45 -33l277 -835l182 520l-105 301q-7 22 2 34.5t31 12.5h60q34 0 45 -33l276 -833l277 833q11 33 45 33h59q22 0 31 -12q5 -7 5 -18q0 -8 -3 -17l-328 -944q-11 -33 -47 -33h-43h-35q-36 0 -47 33l-158 456l-161 -456 q-11 -33 -48 -33h-43h-34q-36 0 -47 33z" />
<glyph unicode="x" horiz-adv-x="927" d="M68 14q-3 5 -3 11q0 11 9 24l314 483l-288 443q-14 20 -6 34.5t33 14.5h55q31 0 49 -27l230 -352l229 352q18 27 49 27h56q25 0 32.5 -14.5t-6.5 -34.5l-287 -443l314 -483q9 -13 9 -23q0 -6 -3 -12q-8 -14 -33 -14h-55q-31 0 -49 27l-256 393l-256 -393q-18 -27 -49 -27 h-56q-24 0 -32 14z" />
<glyph unicode="y" horiz-adv-x="962" d="M40 1012q9 12 32 12h57q36 0 47 -31l328 -796l282 794q11 33 48 33h59q22 0 31 -12q5 -8 5 -18q0 -7 -3 -17l-482 -1354q-11 -33 -47 -33h-59q-22 0 -31 13t-2 35l131 370l-395 969q-5 11 -5 20q0 8 4 15z" />
<glyph unicode="z" horiz-adv-x="921" d="M82 41v20q0 26 16 52l553 780h-508q-41 0 -41 41v49q0 41 41 41h656q41 0 41 -41v-20q0 -25 -17 -52l-553 -780h549q41 0 41 -41v-49q0 -41 -41 -41h-696q-41 0 -41 41z" />
<glyph unicode="{" horiz-adv-x="724" d="M102 694v49q0 41 41 41q90 5 131 47t41 154v342q0 171 84.5 255t243.5 79q41 0 41 -41v-49q0 -41 -43 -41q-100 5 -145 -40.5t-45 -162.5v-342q0 -117 -40 -179.5t-120 -86.5q80 -24 120 -86.5t40 -179.5v-342q0 -117 45 -162.5t145 -40.5q43 0 43 -41v-49q0 -41 -41 -41 q-159 -5 -243.5 79t-84.5 255v342q0 112 -41 153.5t-131 46.5q-41 0 -41 41z" />
<glyph unicode="|" horiz-adv-x="462" d="M164 -369v1803q0 41 41 41h53q41 0 41 -41v-1803q0 -41 -41 -41h-53q-41 0 -41 41z" />
<glyph unicode="}" horiz-adv-x="724" d="M41 -133q0 41 43 41q100 -5 145 40.5t45 162.5v342q0 117 40 179.5t120 86.5q-80 24 -120 86.5t-40 179.5v342q0 117 -45 162.5t-145 40.5q-43 0 -43 41v49q0 41 41 41q159 5 243.5 -79t84.5 -255v-342q0 -112 41 -154t131 -47q41 0 41 -41v-49q0 -41 -41 -41 q-90 -5 -131 -46.5t-41 -153.5v-342q0 -171 -84.5 -255t-243.5 -79q-41 0 -41 41v49z" />
<glyph unicode="~" horiz-adv-x="1216" d="M135 680q39 98 108 145.5t171 36.5t225 -88q92 -58 157 -69.5t101 15t59 87.5q15 41 54 22l49 -22q34 -15 22 -53q-39 -99 -106.5 -146.5t-169 -37t-227.5 88.5q-91 57 -155 69t-102 -14t-61 -87q-15 -41 -53 -23l-49 23q-35 15 -23 53z" />
<glyph unicode="&#xa2;" horiz-adv-x="1173" d="M82 717q0 150 70 272.5t193.5 193t275.5 70.5q56 0 97 -8l52 162q9 27 37 27h35q36 0 26 -37l-57 -177q98 -36 172.5 -107t112.5 -165q9 -21 -1 -34t-32 -13h-59q-34 0 -50 31q-59 113 -183 162l-249 -771q48 -12 99 -12q111 0 199.5 51.5t133.5 139.5q15 30 50 30h59 q22 0 32 -13t1 -34q-54 -137 -183.5 -221t-291.5 -84q-72 0 -140 17l-55 -170q-9 -27 -37 -27h-35q-36 0 -26 37l62 192q-141 64 -224.5 194t-83.5 294zM217 717q0 -117 58 -213t156 -147l246 762q-27 3 -56 3q-170 0 -287 -117.5t-117 -287.5z" />
<glyph unicode="&#xa3;" horiz-adv-x="1198" d="M82 41v57q0 41 41 41h151v432h-110q-41 0 -41 41v45q0 41 41 41h110v330q0 106 36 190t96.5 135.5t134 78t153.5 26.5q60 0 119 -16t113.5 -51t96 -84.5t66.5 -121.5t25 -157v-4q0 -41 -41 -41h-61q-41 0 -41 41v4q0 74 -24.5 132t-65 91.5t-88.5 50.5t-99 17 q-116 0 -196 -73t-80 -218v-330h432q41 0 41 -41v-45q0 -41 -41 -41h-432v-432h708q41 0 41 -41v-57q0 -41 -41 -41h-1003q-41 0 -41 41z" />
<glyph unicode="&#xa5;" horiz-adv-x="1177" d="M47 1419q8 15 33 15h70q31 0 49 -27l390 -599l390 599q18 27 49 27h70q25 0 32.5 -15t-6.5 -35l-437 -673h302q41 0 41 -41v-37q0 -41 -41 -41h-330v-123h330q41 0 41 -41v-37q0 -41 -41 -41h-330v-309q0 -41 -41 -41h-61q-41 0 -41 41v309h-326q-40 0 -40 41v37 q0 41 40 41h326v123h-326q-40 0 -40 41v37q0 41 40 41h300l-437 673q-14 20 -6 35z" />
<glyph unicode="&#xa8;" horiz-adv-x="655" d="M41 1225v90q0 37 37 37h90q37 0 37 -37v-90q0 -37 -37 -37h-90q-37 0 -37 37zM451 1225v90q0 37 36 37h91q36 0 36 -37v-90q0 -37 -36 -37h-91q-36 0 -36 37z" />
<glyph unicode="&#xa9;" horiz-adv-x="1646" d="M82 717q0 151 58.5 288.5t157.5 236.5t236.5 157.5t288.5 58.5q202 0 372.5 -99t270 -269.5t99.5 -372.5t-99.5 -372.5t-270 -270t-372.5 -99.5t-372.5 99.5t-269.5 270t-99 372.5zM143 717q0 -140 54 -266.5t145 -218t217 -145.5t264 -54t264 54t217 145.5t145 218 t54 266.5t-54 266.5t-145 218t-217 145.5t-264 54t-264 -54t-217 -145.5t-145 -218t-54 -266.5zM432 717q0 165 115 279t282 114q126 0 225 -67.5t138 -177.5q7 -21 -3.5 -33.5t-32.5 -12.5h-56q-31 0 -46 34q-27 63 -89.5 96.5t-135.5 33.5q-118 0 -191 -79t-73 -187 t73 -187t191 -79q73 0 135.5 33.5t89.5 96.5q15 33 46 33h56q22 0 32.5 -12t3.5 -31q-38 -111 -137 -179t-226 -68q-167 0 -282 114t-115 279z" />
<glyph unicode="&#xab;" horiz-adv-x="1007" d="M160 604q-19 29 0 58l192 313q16 26 49 26h78q25 0 32 -13.5t-5 -35.5l-195 -319l195 -320q12 -22 5 -35.5t-32 -13.5h-78q-33 0 -49 27zM487 604q-19 29 0 58l193 313q16 26 49 26h78q25 0 32 -13.5t-5 -35.5l-195 -319l195 -320q12 -22 5 -35.5t-32 -13.5h-78 q-33 0 -49 27z" />
<glyph unicode="&#xad;" d="M164 608v49q0 41 41 41h655q41 0 41 -41v-49q0 -41 -41 -41h-655q-41 0 -41 41z" />
<glyph unicode="&#xae;" horiz-adv-x="1646" d="M82 717q0 151 58.5 288.5t157.5 236.5t236.5 157.5t288.5 58.5q202 0 372.5 -99t270 -269.5t99.5 -372.5t-99.5 -372.5t-270 -270t-372.5 -99.5t-372.5 99.5t-269.5 270t-99 372.5zM143 717q0 -140 54 -266.5t145 -218t217 -145.5t264 -54t264 54t217 145.5t145 218 t54 266.5t-54 266.5t-145 218t-217 145.5t-264 54t-264 -54t-217 -145.5t-145 -218t-54 -266.5zM598 379v676q0 41 41 41h86h106q136 0 211.5 -71t75.5 -173q0 -81 -37.5 -138t-110.5 -84l191 -242q16 -20 8.5 -35t-33.5 -15h-50q-32 0 -50 24l-196 246h-9h-106v-229 q0 -41 -41 -41h-45q-41 0 -41 41zM725 731h115q72 0 111.5 33t39.5 88q0 56 -39.5 88.5t-111.5 32.5h-115v-242z" />
<glyph unicode="&#xb4;" horiz-adv-x="409" d="M64 1180q7 -13 28 -13h51q29 0 45 23l148 199q14 19 7 32t-30 13h-80q-29 0 -43 -25l-122 -197q-11 -19 -4 -32z" />
<glyph unicode="&#xb8;" horiz-adv-x="501" d="M41 -371q0 37 41 37q127 -7 193.5 13.5t66.5 62.5q0 69 -154 82q-36 3 -36 39v137h118v-92q88 -15 139.5 -59t51.5 -107q0 -198 -381 -186q-39 3 -39 38v35z" />
<glyph unicode="&#xbb;" horiz-adv-x="1007" d="M169 277.5q-7 13.5 5 35.5l195 320l-195 319q-12 22 -5 35.5t32 13.5h78q33 0 49 -26l192 -313q19 -29 0 -58l-192 -313q-16 -27 -49 -27h-78q-25 0 -32 13.5zM497 277.5q-7 13.5 5 35.5l194 320l-194 319q-12 22 -5 35.5t31 13.5h78q33 0 49 -26l193 -313q19 -29 0 -58 l-193 -313q-16 -27 -49 -27h-78q-24 0 -31 13.5z" />
<glyph unicode="&#xc7;" horiz-adv-x="1566" d="M82 717q0 152 56 288.5t154.5 236t239 158t302.5 58.5q221 0 400 -118t255 -310q7 -22 -2 -34.5t-31 -12.5h-72q-34 0 -49 31q-64 138 -199.5 221.5t-301.5 83.5q-177 0 -317 -81t-216 -218t-76 -303t76 -303t216 -218t317 -81q166 0 301.5 83.5t199.5 221.5q15 31 49 31 h72q22 0 32 -12t3 -31q-71 -181 -234 -298.5t-368 -132.5v-69q88 -15 139 -59t51 -107q0 -198 -381 -186q-39 3 -39 39v34q0 37 41 37q128 -7 194.5 13.5t66.5 62.5q0 69 -154 82q-37 3 -37 39v115q-199 15 -357 117t-244.5 265t-86.5 357z" />
<glyph unicode="&#xcb;" d="M164 41v1352q0 41 41 41h102h625q41 0 41 -41v-54q0 -41 -41 -41h-625v-507h574q41 0 41 -41v-54q0 -41 -41 -41h-574v-520h635q41 0 41 -41v-53q0 -41 -41 -41h-717h-20q-41 0 -41 41zM283 1634v90q0 37 36 37h91q36 0 36 -37v-90q0 -37 -36 -37h-91q-36 0 -36 37z M692 1634v90q0 37 37 37h90q37 0 37 -37v-90q0 -37 -37 -37h-90q-37 0 -37 37z" />
<glyph unicode="&#xe7;" horiz-adv-x="1173" d="M82 512q0 112 41 211.5t112 171t171.5 113t214.5 41.5q161 0 290 -84t185 -222q9 -21 -1 -34t-32 -13h-59q-34 0 -50 31q-46 88 -134.5 139.5t-198.5 51.5q-170 0 -287 -118t-117 -288t117 -288t287 -118q111 0 199.5 51.5t133.5 139.5q16 31 50 31h59q22 0 32 -13t1 -34 q-50 -126 -163.5 -208t-258.5 -95v-70q88 -15 139 -59t51 -107q0 -198 -381 -186q-39 3 -39 38v35q0 37 41 37q127 -7 193.5 13.5t66.5 62.5q0 69 -153 82q-37 3 -37 39v116q-136 15 -244 88t-168.5 189.5t-60.5 255.5z" />
<glyph unicode="&#xeb;" horiz-adv-x="1165" d="M82 512q0 150 64 272t184.5 193.5t275.5 71.5q151 0 266.5 -77.5t173.5 -199t58 -264.5v-25q-3 -39 -43 -39h-96h-744q20 -156 125 -247t262 -91q99 0 176 40t117 106q19 29 49 29h66q24 0 34 -11t3 -30q-54 -119 -173.5 -192t-273.5 -73q-233 0 -378.5 151.5 t-145.5 385.5zM221 575h744q-18 163 -119 253t-240 90q-159 0 -262.5 -95t-122.5 -248zM317 1225v90q0 37 37 37h90q37 0 37 -37v-90q0 -37 -37 -37h-90q-37 0 -37 37zM727 1225v90q0 37 37 37h90q37 0 37 -37v-90q0 -37 -37 -37h-90q-37 0 -37 37z" />
<glyph unicode="&#x2c6;" horiz-adv-x="675" d="M69.5 1180q-5.5 13 8.5 32l162 201q16 21 45 21h67h39q29 0 45 -21l162 -201q14 -19 8.5 -32t-28.5 -13h-68q-28 0 -45 23l-127 156l-127 -156q-17 -23 -45 -23h-68q-23 0 -28.5 13z" />
<glyph unicode="&#x2da;" horiz-adv-x="516" d="M41 1331q0 89 60.5 147t156.5 58q97 0 157 -58t60 -147t-60 -147t-157 -58q-96 0 -156.5 58t-60.5 147zM154 1331q0 -44 27.5 -72t76.5 -28q51 0 79 28t28 72t-28 72.5t-79 28.5q-49 0 -76.5 -28.5t-27.5 -72.5z" />
<glyph unicode="&#x2dc;" horiz-adv-x="655" d="M43 1227q7 104 51 153.5t106 43t130 -57.5q33 -26 54.5 -40t43 -23t34 -4.5t21.5 23t11 52.5q3 39 38 39h46q37 0 34 -39q-7 -104 -50 -153.5t-104.5 -43t-129.5 57.5q-33 25 -54.5 39.5t-43.5 23.5t-35 4.5t-22 -23t-11 -52.5q-3 -39 -39 -39h-45q-38 0 -35 39z" />
<glyph unicode="&#x2000;" horiz-adv-x="880" />
<glyph unicode="&#x2001;" horiz-adv-x="1761" />
<glyph unicode="&#x2002;" horiz-adv-x="880" />
<glyph unicode="&#x2003;" horiz-adv-x="1761" />
<glyph unicode="&#x2004;" horiz-adv-x="587" />
<glyph unicode="&#x2005;" horiz-adv-x="440" />
<glyph unicode="&#x2006;" horiz-adv-x="293" />
<glyph unicode="&#x2007;" horiz-adv-x="293" />
<glyph unicode="&#x2008;" horiz-adv-x="220" />
<glyph unicode="&#x2009;" horiz-adv-x="352" />
<glyph unicode="&#x200a;" horiz-adv-x="97" />
<glyph unicode="&#x2010;" d="M164 608v49q0 41 41 41h655q41 0 41 -41v-49q0 -41 -41 -41h-655q-41 0 -41 41z" />
<glyph unicode="&#x2011;" d="M164 608v49q0 41 41 41h655q41 0 41 -41v-49q0 -41 -41 -41h-655q-41 0 -41 41z" />
<glyph unicode="&#x2012;" d="M164 608v49q0 41 41 41h655q41 0 41 -41v-49q0 -41 -41 -41h-655q-41 0 -41 41z" />
<glyph unicode="&#x2013;" horiz-adv-x="1351" d="M164 608v49q0 41 41 41h942q41 0 41 -41v-49q0 -41 -41 -41h-942q-41 0 -41 41z" />
<glyph unicode="&#x2014;" horiz-adv-x="1556" d="M164 608v49q0 41 41 41h1147q41 0 41 -41v-49q0 -41 -41 -41h-1147q-41 0 -41 41z" />
<glyph unicode="&#x2018;" horiz-adv-x="471" d="M143 1034v144q0 102 39 169.5t115 90.5q13 3 22 -5t9 -22v-25q0 -20 -21 -34q-34 -17 -52.5 -55.5t-18.5 -118.5h51q41 0 41 -41v-103q0 -41 -41 -41h-103q-41 0 -41 41z" />
<glyph unicode="&#x2019;" horiz-adv-x="471" d="M143 1016v24q0 21 21 35q35 17 53.5 55.5t18.5 118.5h-52q-41 0 -41 41v103q0 41 41 41h103q41 0 41 -41v-144q0 -102 -39 -169.5t-115 -90.5q-13 -3 -22 5t-9 22z" />
<glyph unicode="&#x201a;" horiz-adv-x="471" d="M143 41v102q0 41 41 41h103q41 0 41 -41v-143q0 -102 -39 -169.5t-115 -90.5q-13 -3 -22 5t-9 22v24q0 21 21 35q35 17 53.5 55.5t18.5 118.5h-52q-41 0 -41 41z" />
<glyph unicode="&#x201c;" horiz-adv-x="757" d="M143 1034v144q0 102 39 169.5t115 90.5q13 3 22 -5t9 -22v-25q0 -20 -21 -34q-34 -17 -52.5 -55.5t-18.5 -118.5h51q41 0 41 -41v-103q0 -41 -41 -41h-103q-41 0 -41 41zM430 1034v144q0 102 39 169.5t115 90.5q13 3 21.5 -5t8.5 -22v-25q0 -21 -20 -34 q-35 -17 -53.5 -55.5t-18.5 -118.5h51q41 0 41 -41v-103q0 -41 -41 -41h-102q-41 0 -41 41z" />
<glyph unicode="&#x201d;" horiz-adv-x="757" d="M143 1016v24q0 21 21 35q35 17 53.5 55.5t18.5 118.5h-52q-41 0 -41 41v103q0 41 41 41h103q41 0 41 -41v-144q0 -102 -39 -169.5t-115 -90.5q-13 -3 -22 5t-9 22zM430 1016v24q0 21 21 35q34 17 52.5 55.5t18.5 118.5h-51q-41 0 -41 41v103q0 41 41 41h102q41 0 41 -41 v-144q0 -103 -38.5 -170t-114.5 -90q-13 -3 -22 5t-9 22z" />
<glyph unicode="&#x201e;" horiz-adv-x="757" d="M143 41v102q0 41 41 41h103q41 0 41 -41v-143q0 -102 -39 -169.5t-115 -90.5q-13 -3 -22 5t-9 22v24q0 21 21 35q35 17 53.5 55.5t18.5 118.5h-52q-41 0 -41 41zM430 41v102q0 41 41 41h102q41 0 41 -41v-143q0 -103 -38.5 -170t-114.5 -90q-13 -3 -22 5t-9 22v24 q0 21 21 35q34 17 52.5 55.5t18.5 118.5h-51q-41 0 -41 41z" />
<glyph unicode="&#x2022;" horiz-adv-x="614" d="M102 719q0 85 60.5 144t146.5 59q85 0 144 -59t59 -144q0 -86 -59 -146.5t-144 -60.5q-86 0 -146.5 60.5t-60.5 146.5z" />
<glyph unicode="&#x2026;" horiz-adv-x="1249" d="M143 41v102q0 41 41 41h103q41 0 41 -41v-102q0 -41 -41 -41h-103q-41 0 -41 41zM532 41v102q0 41 41 41h103q41 0 41 -41v-102q0 -41 -41 -41h-103q-41 0 -41 41zM922 41v102q0 41 41 41h102q41 0 41 -41v-102q0 -41 -41 -41h-102q-41 0 -41 41z" />
<glyph unicode="&#x202f;" horiz-adv-x="352" />
<glyph unicode="&#x2039;" horiz-adv-x="679" d="M160 604q-19 29 0 58l192 313q16 26 49 26h78q25 0 32 -13.5t-5 -35.5l-195 -319l195 -320q12 -22 5 -35.5t-32 -13.5h-78q-33 0 -49 27z" />
<glyph unicode="&#x203a;" horiz-adv-x="679" d="M169 277.5q-7 13.5 5 35.5l195 320l-195 319q-12 22 -5 35.5t32 13.5h78q33 0 49 -26l192 -313q19 -29 0 -58l-192 -313q-16 -27 -49 -27h-78q-25 0 -32 13.5z" />
<glyph unicode="&#x205f;" horiz-adv-x="440" />
<glyph unicode="&#x20ac;" horiz-adv-x="1269" d="M20 586v37q0 41 41 41h104q-1 18 -1 53q0 46 1 69h-104q-41 0 -41 41v37q0 41 41 41h116q37 258 174 405.5t356 147.5q195 0 322.5 -117.5t166.5 -324.5q4 -21 -6 -33t-31 -12h-63q-37 0 -43 37q-31 150 -121 230.5t-225 80.5q-155 0 -254.5 -107t-131.5 -307h478 q41 0 41 -41v-37q0 -41 -41 -41h-490q-2 -46 -2 -69q0 -36 1 -53h491q41 0 41 -41v-37q0 -41 -41 -41h-481q29 -207 130 -318.5t259 -111.5q138 0 229.5 84.5t120.5 240.5q6 39 45 39h61q21 0 31.5 -12t7.5 -33q-39 -215 -167.5 -337t-327.5 -122q-223 0 -361 152.5 t-172 417.5h-113q-41 0 -41 41z" />
<glyph unicode="&#x2122;" horiz-adv-x="950" d="M82 1378v35q0 21 20 21h181h96q20 0 20 -21v-35q0 -20 -20 -20h-96v-314q0 -20 -21 -20h-41q-20 0 -20 20v314h-99q-20 0 -20 20zM449 1044v369q0 21 20 21h41h18q19 0 25 -15l106 -221l107 221q6 15 25 15h40h17q20 0 20 -21v-369q0 -20 -20 -20h-41q-21 0 -21 20v244 l-77 -160q-6 -14 -25 -14h-49q-19 0 -25 14l-80 161v-245q0 -20 -20 -20h-41q-20 0 -20 20z" />
<glyph unicode="&#x25fc;" horiz-adv-x="1024" d="M0 0v1024h1024v-1024h-1024z" />
</font>
</defs>
</svg>
